<mxfile host="app.diagrams.net" modified="2023-09-26T07:15:48.313Z" agent="Mozilla/5.0 (Macintosh; Intel Mac OS X 10_15_7) AppleWebKit/537.36 (KHTML, like Gecko) Chrome/116.0.0.0 Safari/537.36" etag="-hV5HnhqubdVqIQBTVUY" version="21.8.0" type="github">
  <diagram name="机构" id="tVOKbTBW-R6PsbDogxPf">
    <mxGraphModel dx="2740" dy="1156" grid="1" gridSize="10" guides="1" tooltips="1" connect="1" arrows="1" fold="1" page="1" pageScale="1" pageWidth="850" pageHeight="1100" math="0" shadow="0">
      <root>
        <mxCell id="0" />
        <mxCell id="1" parent="0" />
        <mxCell id="w5oNhNrVCY90rafxgWAN-1" value="" style="rounded=0;whiteSpace=wrap;html=1;" vertex="1" parent="1">
          <mxGeometry x="-630" y="360" width="500" height="690" as="geometry" />
        </mxCell>
        <mxCell id="w5oNhNrVCY90rafxgWAN-2" value="旧系统" style="text;html=1;strokeColor=none;fillColor=none;align=center;verticalAlign=middle;whiteSpace=wrap;rounded=0;" vertex="1" parent="1">
          <mxGeometry x="-410" y="370" width="60" height="30" as="geometry" />
        </mxCell>
        <mxCell id="w5oNhNrVCY90rafxgWAN-3" value="" style="rounded=0;whiteSpace=wrap;html=1;" vertex="1" parent="1">
          <mxGeometry x="-610" y="410" width="460" height="310" as="geometry" />
        </mxCell>
        <mxCell id="w5oNhNrVCY90rafxgWAN-4" value="数据" style="text;html=1;strokeColor=none;fillColor=none;align=center;verticalAlign=middle;whiteSpace=wrap;rounded=0;" vertex="1" parent="1">
          <mxGeometry x="-410" y="420" width="60" height="30" as="geometry" />
        </mxCell>
        <mxCell id="w5oNhNrVCY90rafxgWAN-41" style="edgeStyle=orthogonalEdgeStyle;rounded=0;orthogonalLoop=1;jettySize=auto;html=1;exitX=0.5;exitY=1;exitDx=0;exitDy=0;entryX=0.75;entryY=0;entryDx=0;entryDy=0;" edge="1" parent="1" source="w5oNhNrVCY90rafxgWAN-5" target="w5oNhNrVCY90rafxgWAN-12">
          <mxGeometry relative="1" as="geometry" />
        </mxCell>
        <mxCell id="w5oNhNrVCY90rafxgWAN-5" value="机构主表" style="rounded=1;whiteSpace=wrap;html=1;" vertex="1" parent="1">
          <mxGeometry x="-300" y="460" width="120" height="60" as="geometry" />
        </mxCell>
        <mxCell id="w5oNhNrVCY90rafxgWAN-6" value="" style="rounded=0;whiteSpace=wrap;html=1;" vertex="1" parent="1">
          <mxGeometry x="-610" y="730" width="460" height="310" as="geometry" />
        </mxCell>
        <mxCell id="w5oNhNrVCY90rafxgWAN-7" value="代码+流程" style="text;html=1;strokeColor=none;fillColor=none;align=center;verticalAlign=middle;whiteSpace=wrap;rounded=0;" vertex="1" parent="1">
          <mxGeometry x="-410" y="740" width="60" height="30" as="geometry" />
        </mxCell>
        <mxCell id="w5oNhNrVCY90rafxgWAN-36" style="edgeStyle=orthogonalEdgeStyle;rounded=0;orthogonalLoop=1;jettySize=auto;html=1;exitX=1;exitY=0.5;exitDx=0;exitDy=0;entryX=1;entryY=0.5;entryDx=0;entryDy=0;" edge="1" parent="1" source="w5oNhNrVCY90rafxgWAN-8" target="w5oNhNrVCY90rafxgWAN-35">
          <mxGeometry relative="1" as="geometry">
            <Array as="points">
              <mxPoint x="-110" y="810" />
              <mxPoint x="-110" y="1180" />
            </Array>
          </mxGeometry>
        </mxCell>
        <mxCell id="w5oNhNrVCY90rafxgWAN-8" value="增机构" style="rounded=1;whiteSpace=wrap;html=1;fillColor=#d5e8d4;strokeColor=#82b366;" vertex="1" parent="1">
          <mxGeometry x="-300" y="780" width="120" height="60" as="geometry" />
        </mxCell>
        <mxCell id="w5oNhNrVCY90rafxgWAN-9" value="改机构" style="rounded=1;whiteSpace=wrap;html=1;fillColor=#ffe6cc;strokeColor=#d79b00;" vertex="1" parent="1">
          <mxGeometry x="-300" y="855" width="120" height="60" as="geometry" />
        </mxCell>
        <mxCell id="w5oNhNrVCY90rafxgWAN-10" value="删除机构" style="rounded=1;whiteSpace=wrap;html=1;fillColor=#ffe6cc;strokeColor=#d79b00;" vertex="1" parent="1">
          <mxGeometry x="-300" y="930" width="120" height="60" as="geometry" />
        </mxCell>
        <mxCell id="w5oNhNrVCY90rafxgWAN-11" value="合并机构" style="rounded=1;whiteSpace=wrap;html=1;fillColor=#ffe6cc;strokeColor=#d79b00;" vertex="1" parent="1">
          <mxGeometry x="-440" y="780" width="120" height="60" as="geometry" />
        </mxCell>
        <mxCell id="w5oNhNrVCY90rafxgWAN-40" style="edgeStyle=orthogonalEdgeStyle;rounded=0;orthogonalLoop=1;jettySize=auto;html=1;exitX=0.5;exitY=0;exitDx=0;exitDy=0;entryX=0.5;entryY=1;entryDx=0;entryDy=0;" edge="1" parent="1" source="w5oNhNrVCY90rafxgWAN-12" target="w5oNhNrVCY90rafxgWAN-13">
          <mxGeometry relative="1" as="geometry" />
        </mxCell>
        <mxCell id="w5oNhNrVCY90rafxgWAN-12" value="推送ES搜索" style="rounded=1;whiteSpace=wrap;html=1;fillColor=#d5e8d4;strokeColor=#82b366;" vertex="1" parent="1">
          <mxGeometry x="-580" y="780" width="120" height="60" as="geometry" />
        </mxCell>
        <mxCell id="w5oNhNrVCY90rafxgWAN-13" value="ES" style="rounded=1;whiteSpace=wrap;html=1;" vertex="1" parent="1">
          <mxGeometry x="-580" y="460" width="120" height="60" as="geometry" />
        </mxCell>
        <mxCell id="w5oNhNrVCY90rafxgWAN-14" value="其它相关表" style="rounded=1;whiteSpace=wrap;html=1;" vertex="1" parent="1">
          <mxGeometry x="-440" y="460" width="120" height="60" as="geometry" />
        </mxCell>
        <mxCell id="w5oNhNrVCY90rafxgWAN-16" value="" style="rounded=0;whiteSpace=wrap;html=1;" vertex="1" parent="1">
          <mxGeometry x="-40" y="360" width="500" height="690" as="geometry" />
        </mxCell>
        <mxCell id="w5oNhNrVCY90rafxgWAN-17" value="新系统" style="text;html=1;strokeColor=none;fillColor=none;align=center;verticalAlign=middle;whiteSpace=wrap;rounded=0;" vertex="1" parent="1">
          <mxGeometry x="180" y="370" width="60" height="30" as="geometry" />
        </mxCell>
        <mxCell id="w5oNhNrVCY90rafxgWAN-18" value="" style="rounded=0;whiteSpace=wrap;html=1;" vertex="1" parent="1">
          <mxGeometry x="-20" y="410" width="460" height="310" as="geometry" />
        </mxCell>
        <mxCell id="w5oNhNrVCY90rafxgWAN-19" value="数据" style="text;html=1;strokeColor=none;fillColor=none;align=center;verticalAlign=middle;whiteSpace=wrap;rounded=0;" vertex="1" parent="1">
          <mxGeometry x="180" y="420" width="60" height="30" as="geometry" />
        </mxCell>
        <mxCell id="w5oNhNrVCY90rafxgWAN-43" style="edgeStyle=orthogonalEdgeStyle;rounded=0;orthogonalLoop=1;jettySize=auto;html=1;exitX=0.5;exitY=1;exitDx=0;exitDy=0;entryX=0.5;entryY=0;entryDx=0;entryDy=0;" edge="1" parent="1" source="w5oNhNrVCY90rafxgWAN-20" target="w5oNhNrVCY90rafxgWAN-32">
          <mxGeometry relative="1" as="geometry" />
        </mxCell>
        <mxCell id="w5oNhNrVCY90rafxgWAN-48" style="edgeStyle=orthogonalEdgeStyle;rounded=0;orthogonalLoop=1;jettySize=auto;html=1;exitX=0.5;exitY=0;exitDx=0;exitDy=0;entryX=0.5;entryY=0;entryDx=0;entryDy=0;" edge="1" parent="1" source="w5oNhNrVCY90rafxgWAN-20" target="w5oNhNrVCY90rafxgWAN-5">
          <mxGeometry relative="1" as="geometry">
            <Array as="points">
              <mxPoint x="350" y="310" />
              <mxPoint x="-240" y="310" />
            </Array>
          </mxGeometry>
        </mxCell>
        <mxCell id="w5oNhNrVCY90rafxgWAN-20" value="新机构主表" style="rounded=1;whiteSpace=wrap;html=1;" vertex="1" parent="1">
          <mxGeometry x="290" y="460" width="120" height="60" as="geometry" />
        </mxCell>
        <mxCell id="w5oNhNrVCY90rafxgWAN-21" value="" style="rounded=0;whiteSpace=wrap;html=1;" vertex="1" parent="1">
          <mxGeometry x="-20" y="730" width="460" height="310" as="geometry" />
        </mxCell>
        <mxCell id="w5oNhNrVCY90rafxgWAN-22" value="代码+流程" style="text;html=1;strokeColor=none;fillColor=none;align=center;verticalAlign=middle;whiteSpace=wrap;rounded=0;" vertex="1" parent="1">
          <mxGeometry x="180" y="740" width="60" height="30" as="geometry" />
        </mxCell>
        <mxCell id="w5oNhNrVCY90rafxgWAN-23" value="增机构" style="rounded=1;whiteSpace=wrap;html=1;" vertex="1" parent="1">
          <mxGeometry x="290" y="780" width="120" height="60" as="geometry" />
        </mxCell>
        <mxCell id="w5oNhNrVCY90rafxgWAN-45" style="edgeStyle=orthogonalEdgeStyle;rounded=0;orthogonalLoop=1;jettySize=auto;html=1;exitX=0;exitY=0.5;exitDx=0;exitDy=0;entryX=1;entryY=0.5;entryDx=0;entryDy=0;" edge="1" parent="1" source="w5oNhNrVCY90rafxgWAN-24" target="w5oNhNrVCY90rafxgWAN-9">
          <mxGeometry relative="1" as="geometry" />
        </mxCell>
        <mxCell id="w5oNhNrVCY90rafxgWAN-47" style="edgeStyle=orthogonalEdgeStyle;rounded=0;orthogonalLoop=1;jettySize=auto;html=1;exitX=1;exitY=0.5;exitDx=0;exitDy=0;entryX=1;entryY=0.5;entryDx=0;entryDy=0;" edge="1" parent="1" source="w5oNhNrVCY90rafxgWAN-24" target="w5oNhNrVCY90rafxgWAN-20">
          <mxGeometry relative="1" as="geometry">
            <Array as="points">
              <mxPoint x="560" y="885" />
              <mxPoint x="560" y="490" />
            </Array>
          </mxGeometry>
        </mxCell>
        <mxCell id="w5oNhNrVCY90rafxgWAN-57" style="edgeStyle=orthogonalEdgeStyle;rounded=0;orthogonalLoop=1;jettySize=auto;html=1;exitX=0.5;exitY=1;exitDx=0;exitDy=0;entryX=0;entryY=0.5;entryDx=0;entryDy=0;" edge="1" parent="1" source="w5oNhNrVCY90rafxgWAN-24" target="w5oNhNrVCY90rafxgWAN-54">
          <mxGeometry relative="1" as="geometry" />
        </mxCell>
        <mxCell id="w5oNhNrVCY90rafxgWAN-24" value="改机构" style="rounded=1;whiteSpace=wrap;html=1;fillColor=#d5e8d4;strokeColor=#82b366;" vertex="1" parent="1">
          <mxGeometry x="290" y="855" width="120" height="60" as="geometry" />
        </mxCell>
        <mxCell id="w5oNhNrVCY90rafxgWAN-49" style="edgeStyle=orthogonalEdgeStyle;rounded=0;orthogonalLoop=1;jettySize=auto;html=1;exitX=0;exitY=0.5;exitDx=0;exitDy=0;" edge="1" parent="1" source="w5oNhNrVCY90rafxgWAN-25" target="w5oNhNrVCY90rafxgWAN-10">
          <mxGeometry relative="1" as="geometry" />
        </mxCell>
        <mxCell id="w5oNhNrVCY90rafxgWAN-51" style="edgeStyle=orthogonalEdgeStyle;rounded=0;orthogonalLoop=1;jettySize=auto;html=1;exitX=1;exitY=0.5;exitDx=0;exitDy=0;entryX=1;entryY=0.5;entryDx=0;entryDy=0;" edge="1" parent="1" source="w5oNhNrVCY90rafxgWAN-25" target="w5oNhNrVCY90rafxgWAN-20">
          <mxGeometry relative="1" as="geometry">
            <Array as="points">
              <mxPoint x="580" y="960" />
              <mxPoint x="580" y="490" />
            </Array>
          </mxGeometry>
        </mxCell>
        <mxCell id="w5oNhNrVCY90rafxgWAN-56" style="edgeStyle=orthogonalEdgeStyle;rounded=0;orthogonalLoop=1;jettySize=auto;html=1;exitX=0.5;exitY=1;exitDx=0;exitDy=0;entryX=0;entryY=0.5;entryDx=0;entryDy=0;" edge="1" parent="1" source="w5oNhNrVCY90rafxgWAN-25" target="w5oNhNrVCY90rafxgWAN-54">
          <mxGeometry relative="1" as="geometry" />
        </mxCell>
        <mxCell id="w5oNhNrVCY90rafxgWAN-25" value="删除机构" style="rounded=1;whiteSpace=wrap;html=1;fillColor=#d5e8d4;strokeColor=#82b366;" vertex="1" parent="1">
          <mxGeometry x="290" y="930" width="120" height="60" as="geometry" />
        </mxCell>
        <mxCell id="w5oNhNrVCY90rafxgWAN-52" style="edgeStyle=orthogonalEdgeStyle;rounded=0;orthogonalLoop=1;jettySize=auto;html=1;exitX=0.5;exitY=1;exitDx=0;exitDy=0;entryX=0.5;entryY=1;entryDx=0;entryDy=0;" edge="1" parent="1" source="w5oNhNrVCY90rafxgWAN-26" target="w5oNhNrVCY90rafxgWAN-11">
          <mxGeometry relative="1" as="geometry">
            <Array as="points">
              <mxPoint x="210" y="1080" />
              <mxPoint x="-380" y="1080" />
            </Array>
          </mxGeometry>
        </mxCell>
        <mxCell id="w5oNhNrVCY90rafxgWAN-53" style="edgeStyle=orthogonalEdgeStyle;rounded=0;orthogonalLoop=1;jettySize=auto;html=1;exitX=0.5;exitY=0;exitDx=0;exitDy=0;entryX=1;entryY=0.5;entryDx=0;entryDy=0;" edge="1" parent="1" source="w5oNhNrVCY90rafxgWAN-26" target="w5oNhNrVCY90rafxgWAN-20">
          <mxGeometry relative="1" as="geometry">
            <Array as="points">
              <mxPoint x="210" y="700" />
              <mxPoint x="600" y="700" />
              <mxPoint x="600" y="490" />
            </Array>
          </mxGeometry>
        </mxCell>
        <mxCell id="w5oNhNrVCY90rafxgWAN-58" style="edgeStyle=orthogonalEdgeStyle;rounded=0;orthogonalLoop=1;jettySize=auto;html=1;exitX=0.75;exitY=1;exitDx=0;exitDy=0;entryX=0;entryY=0.5;entryDx=0;entryDy=0;" edge="1" parent="1" source="w5oNhNrVCY90rafxgWAN-26" target="w5oNhNrVCY90rafxgWAN-54">
          <mxGeometry relative="1" as="geometry" />
        </mxCell>
        <mxCell id="w5oNhNrVCY90rafxgWAN-26" value="合并机构" style="rounded=1;whiteSpace=wrap;html=1;fillColor=#d5e8d4;strokeColor=#82b366;" vertex="1" parent="1">
          <mxGeometry x="150" y="780" width="120" height="60" as="geometry" />
        </mxCell>
        <mxCell id="w5oNhNrVCY90rafxgWAN-38" style="edgeStyle=orthogonalEdgeStyle;rounded=0;orthogonalLoop=1;jettySize=auto;html=1;exitX=0.5;exitY=0;exitDx=0;exitDy=0;entryX=0.5;entryY=1;entryDx=0;entryDy=0;" edge="1" parent="1" source="w5oNhNrVCY90rafxgWAN-27" target="w5oNhNrVCY90rafxgWAN-34">
          <mxGeometry relative="1" as="geometry" />
        </mxCell>
        <mxCell id="w5oNhNrVCY90rafxgWAN-27" value="推送ES搜索" style="rounded=1;whiteSpace=wrap;html=1;fillColor=#d5e8d4;strokeColor=#82b366;" vertex="1" parent="1">
          <mxGeometry x="-10" y="780" width="120" height="60" as="geometry" />
        </mxCell>
        <mxCell id="w5oNhNrVCY90rafxgWAN-31" value="1. 继承机构主表&lt;br style=&quot;border-color: var(--border-color);&quot;&gt;2. 新增&lt;br&gt;&amp;nbsp; &amp;nbsp;1. 医保代码&lt;br style=&quot;border-color: var(--border-color);&quot;&gt;&amp;nbsp; &amp;nbsp;2. 社会统一信用代码" style="text;html=1;strokeColor=none;fillColor=none;align=left;verticalAlign=middle;whiteSpace=wrap;rounded=0;" vertex="1" parent="1">
          <mxGeometry x="140" y="460" width="140" height="60" as="geometry" />
        </mxCell>
        <mxCell id="w5oNhNrVCY90rafxgWAN-42" style="edgeStyle=orthogonalEdgeStyle;rounded=0;orthogonalLoop=1;jettySize=auto;html=1;exitX=0.5;exitY=1;exitDx=0;exitDy=0;entryX=0.75;entryY=0;entryDx=0;entryDy=0;" edge="1" parent="1" source="w5oNhNrVCY90rafxgWAN-32" target="w5oNhNrVCY90rafxgWAN-27">
          <mxGeometry relative="1" as="geometry">
            <Array as="points">
              <mxPoint x="350" y="660" />
              <mxPoint x="80" y="660" />
            </Array>
          </mxGeometry>
        </mxCell>
        <mxCell id="w5oNhNrVCY90rafxgWAN-32" value="医保局机构表" style="rounded=1;whiteSpace=wrap;html=1;" vertex="1" parent="1">
          <mxGeometry x="290" y="550" width="120" height="60" as="geometry" />
        </mxCell>
        <mxCell id="w5oNhNrVCY90rafxgWAN-33" value="清洗任务表" style="rounded=1;whiteSpace=wrap;html=1;" vertex="1" parent="1">
          <mxGeometry x="140" y="550" width="120" height="60" as="geometry" />
        </mxCell>
        <mxCell id="w5oNhNrVCY90rafxgWAN-34" value="ES" style="rounded=1;whiteSpace=wrap;html=1;" vertex="1" parent="1">
          <mxGeometry x="-10" y="460" width="120" height="60" as="geometry" />
        </mxCell>
        <mxCell id="w5oNhNrVCY90rafxgWAN-35" value="业务人员" style="ellipse;whiteSpace=wrap;html=1;aspect=fixed;" vertex="1" parent="1">
          <mxGeometry x="-280" y="1140" width="80" height="80" as="geometry" />
        </mxCell>
        <mxCell id="w5oNhNrVCY90rafxgWAN-54" value="知识库编辑" style="ellipse;whiteSpace=wrap;html=1;aspect=fixed;" vertex="1" parent="1">
          <mxGeometry x="540" y="1140" width="80" height="80" as="geometry" />
        </mxCell>
        <mxCell id="w5oNhNrVCY90rafxgWAN-59" value="1. 假删&lt;br&gt;2. 合并可以撤销&lt;br&gt;3. 所有对旧表的操作都必须经过旧系统接口来保证向前兼容&lt;br&gt;4. 新机构主表中不允许没有新增代码的机构存在" style="text;html=1;strokeColor=none;fillColor=none;align=left;verticalAlign=middle;whiteSpace=wrap;rounded=0;" vertex="1" parent="1">
          <mxGeometry x="720" y="360" width="270" height="110" as="geometry" />
        </mxCell>
      </root>
    </mxGraphModel>
  </diagram>
</mxfile>
